# xmcd
#
# Track frame offsets: 
#        150
#        32817
#        57907
#        81597
#        100687
#        135005
#        158900
#        194512
#        215805
#        236892
#
# Disc length: 3443 seconds
#
# Revision: 2
# Processed by: cddbd v1.5.1PL2 Copyright (c) Steve Scherf et al.
# Submitted via: ExactAudioCopy v0.95b3
#
DISCID=8b0d710a
DTITLE=Klymaxx - Greatest Hits
DYEAR=1996
DGENRE=R&B
TTITLE0=The Men All Pause
TTITLE1=I Miss You
TTITLE2=Meeting In The Ladies Room
TTITLE3=Man Size Love
TTITLE4=Sexy
TTITLE5=Diavas Need Love Too
TTITLE6=Lock and Key
TTITLE7=I'd Still Say Yes
TTITLE8=Good Love
TTITLE9=I Look Good
EXTD=
EXTT0=
EXTT1=
EXTT2=
EXTT3=
EXTT4=
EXTT5=
EXTT6=
EXTT7=
EXTT8=
EXTT9=
PLAYORDER=
